<svg width="112" height="157" viewBox="0 0 112 157" fill="none" xmlns="http://www.w3.org/2000/svg">
<path d="M75.1904 24.7993V118.305C75.1904 119.203 75.9183 119.931 76.8162 119.931H107.705C108.603 119.931 109.331 119.203 109.331 118.305V24.7993C109.331 23.9012 108.603 23.1731 107.705 23.1731H76.8162C75.9183 23.1731 75.1904 23.9012 75.1904 24.7993Z" fill="#7F4AE9"/>
<path d="M37.392 55.2903V117.898C37.392 118.797 38.1199 119.525 39.0177 119.525H69.9068C70.8046 119.525 71.5325 118.797 71.5325 117.898V55.2903C71.5325 54.3922 70.8046 53.6641 69.9068 53.6641H39.0177C38.1199 53.6641 37.392 54.3922 37.392 55.2903Z" fill="#7F4AE9"/>
<path d="M0 82.9354V117.898C0 118.797 0.727868 119.525 1.62574 119.525H32.5148C33.4126 119.525 34.1405 118.797 34.1405 117.898V82.9354C34.1405 82.0373 33.4126 81.3092 32.5148 81.3092H1.62574C0.727868 81.3092 0 82.0373 0 82.9354Z" fill="#7F4AE9"/>
<path d="M96.7315 1.82946V0H86.1642V1.82946H89.5265C90.7773 1.82946 91.833 2.596 92.2308 3.65892H86.1642V5.48837H92.2308C92.0336 6.02187 91.6677 6.48416 91.1835 6.81173C90.6993 7.1393 90.1205 7.3161 89.5265 7.31783H86.1642V9.52599L91.5304 14.6357H94.2472L88.4832 9.14729H89.5265C90.6331 9.14588 91.7054 8.78117 92.5626 8.11465C93.4197 7.44813 94.0093 6.52058 94.2318 5.48837H96.7315V3.65892H94.2318C94.0846 2.99318 93.7811 2.36776 93.3442 1.82946H96.7315Z" fill="#E79B33"/>
<path d="M1.17434 134.038C1.17434 132.419 1.5358 130.973 2.25871 129.7C2.99734 128.411 3.99527 127.412 5.25251 126.705C6.52546 125.982 7.94771 125.62 9.51926 125.62C11.358 125.62 12.9688 126.092 14.3518 127.035C15.7347 127.978 16.7012 129.283 17.2513 130.949H13.456C13.0788 130.163 12.5445 129.574 11.853 129.181C11.1772 128.788 10.3915 128.591 9.49569 128.591C8.53704 128.591 7.68055 128.819 6.92621 129.275C6.18758 129.715 5.60611 130.344 5.18179 131.162C4.77319 131.979 4.56888 132.938 4.56888 134.038C4.56888 135.123 4.77319 136.082 5.18179 136.915C5.60611 137.732 6.18758 138.369 6.92621 138.825C7.68055 139.265 8.53704 139.485 9.49569 139.485C10.3915 139.485 11.1772 139.289 11.853 138.896C12.5445 138.487 13.0788 137.89 13.456 137.104H17.2513C16.7012 138.786 15.7347 140.098 14.3518 141.041C12.9845 141.969 11.3737 142.433 9.51926 142.433C7.94771 142.433 6.52546 142.079 5.25251 141.372C3.99527 140.648 2.99734 139.65 2.25871 138.377C1.5358 137.104 1.17434 135.657 1.17434 134.038Z" fill="#7F4AE9"/>
<path d="M34.5319 125.833V142.291H31.2316V135.288H24.1832V142.291H20.883V125.833H24.1832V132.6H31.2316V125.833H34.5319Z" fill="#7F4AE9"/>
<path d="M41.8933 125.833V142.291H38.5931V125.833H41.8933Z" fill="#7F4AE9"/>
<path d="M57.1641 125.833V128.497H52.7795V142.291H49.4792V128.497H45.0946V125.833H57.1641Z" fill="#7F4AE9"/>
<path d="M69.7199 133.85C70.6472 134.023 71.4094 134.486 72.0065 135.241C72.6037 135.995 72.9023 136.86 72.9023 137.835C72.9023 138.715 72.6823 139.493 72.2423 140.169C71.818 140.829 71.1972 141.348 70.38 141.725C69.5628 142.103 68.5963 142.291 67.4805 142.291H60.3849V125.833H67.174C68.2898 125.833 69.2485 126.013 70.05 126.375C70.8672 126.736 71.4801 127.239 71.8887 127.884C72.313 128.528 72.5252 129.259 72.5252 130.077C72.5252 131.036 72.2658 131.838 71.7472 132.482C71.2443 133.127 70.5686 133.582 69.7199 133.85ZM63.6852 132.623H66.7026C67.4883 132.623 68.0934 132.451 68.5177 132.105C68.942 131.743 69.1542 131.232 69.1542 130.572C69.1542 129.912 68.942 129.401 68.5177 129.039C68.0934 128.678 67.4883 128.497 66.7026 128.497H63.6852V132.623ZM67.009 139.603C67.8105 139.603 68.4313 139.414 68.8713 139.037C69.3271 138.66 69.5549 138.125 69.5549 137.434C69.5549 136.726 69.3192 136.176 68.8477 135.783C68.3763 135.374 67.7398 135.17 66.9383 135.17H63.6852V139.603H67.009Z" fill="#7F4AE9"/>
<path d="M83.9832 142.456C82.4431 142.456 81.0287 142.095 79.74 141.372C78.4513 140.648 77.4298 139.65 76.6755 138.377C75.9211 137.088 75.544 135.634 75.544 134.015C75.544 132.411 75.9211 130.973 76.6755 129.7C77.4298 128.411 78.4513 127.405 79.74 126.681C81.0287 125.958 82.4431 125.597 83.9832 125.597C85.539 125.597 86.9534 125.958 88.2263 126.681C89.515 127.405 90.5287 128.411 91.2673 129.7C92.0216 130.973 92.3988 132.411 92.3988 134.015C92.3988 135.634 92.0216 137.088 91.2673 138.377C90.5287 139.65 89.515 140.648 88.2263 141.372C86.9377 142.095 85.5233 142.456 83.9832 142.456ZM83.9832 139.509C84.9732 139.509 85.8455 139.289 86.5998 138.849C87.3541 138.393 87.9435 137.748 88.3678 136.915C88.7921 136.082 89.0043 135.115 89.0043 134.015C89.0043 132.914 88.7921 131.955 88.3678 131.138C87.9435 130.305 87.3541 129.668 86.5998 129.228C85.8455 128.788 84.9732 128.568 83.9832 128.568C82.9931 128.568 82.113 128.788 81.343 129.228C80.5886 129.668 79.9993 130.305 79.575 131.138C79.1507 131.955 78.9385 132.914 78.9385 134.015C78.9385 135.115 79.1507 136.082 79.575 136.915C79.9993 137.748 80.5886 138.393 81.343 138.849C82.113 139.289 82.9931 139.509 83.9832 139.509Z" fill="#7F4AE9"/>
<path d="M105.521 142.291L101.961 136.75L98.7315 142.291H95.0069L100.193 133.991L94.9362 125.833H98.7315L102.291 131.35L105.497 125.833H109.222L104.059 134.109L109.316 142.291H105.521Z" fill="#7F4AE9"/>
<path d="M30.3444 151.853C30.1764 151.853 30.0355 151.796 29.9217 151.682C29.8079 151.569 29.751 151.428 29.751 151.26C29.751 151.092 29.8079 150.951 29.9217 150.837C30.0355 150.723 30.1764 150.666 30.3444 150.666C30.507 150.666 30.6452 150.723 30.759 150.837C30.8728 150.951 30.9297 151.092 30.9297 151.26C30.9297 151.428 30.8728 151.569 30.759 151.682C30.6452 151.796 30.507 151.853 30.3444 151.853ZM30.7996 152.447V156.927H29.873V152.447H30.7996Z" fill="#7F4AE9"/>
<path d="M33.0974 153.203V155.683C33.0974 155.851 33.1353 155.973 33.2112 156.049C33.2925 156.119 33.4279 156.154 33.6176 156.154H34.1866V156.927H33.455C33.0378 156.927 32.718 156.829 32.4959 156.634C32.2737 156.439 32.1626 156.122 32.1626 155.683V153.203H31.6342V152.447H32.1626V151.333H33.0974V152.447H34.1866V153.203H33.0974Z" fill="#7F4AE9"/>
<path d="M35.187 151.276H36.195L35.3415 153.211H34.6912L35.187 151.276Z" fill="#7F4AE9"/>
<path d="M38.6351 157C38.2829 157 37.9659 156.938 37.6841 156.813C37.4077 156.683 37.1882 156.509 37.0256 156.293C36.8631 156.07 36.7764 155.824 36.7655 155.553H37.7247C37.741 155.742 37.8304 155.902 37.9929 156.032C38.1609 156.157 38.3696 156.219 38.6189 156.219C38.879 156.219 39.0795 156.171 39.2204 156.073C39.3667 155.97 39.4399 155.84 39.4399 155.683C39.4399 155.515 39.3586 155.39 39.196 155.309C39.0388 155.227 38.7868 155.138 38.44 155.04C38.104 154.948 37.8304 154.859 37.619 154.772C37.4077 154.685 37.2234 154.553 37.0663 154.374C36.9145 154.195 36.8387 153.959 36.8387 153.666C36.8387 153.428 36.9091 153.211 37.05 153.016C37.1909 152.815 37.3914 152.658 37.6515 152.544C37.9171 152.43 38.2206 152.374 38.562 152.374C39.0714 152.374 39.4805 152.504 39.7894 152.764C40.1037 153.019 40.2717 153.368 40.2934 153.813H39.3667C39.3504 153.612 39.2691 153.452 39.1228 153.333C38.9765 153.214 38.7787 153.154 38.5294 153.154C38.2856 153.154 38.0986 153.2 37.9686 153.292C37.8385 153.384 37.7735 153.506 37.7735 153.658C37.7735 153.777 37.8168 153.878 37.9035 153.959C37.9902 154.04 38.0959 154.105 38.2206 154.154C38.3452 154.198 38.5294 154.254 38.7733 154.325C39.0984 154.412 39.364 154.501 39.5699 154.593C39.7813 154.68 39.9628 154.81 40.1145 154.984C40.2663 155.157 40.3448 155.387 40.3503 155.675C40.3503 155.929 40.2798 156.157 40.1389 156.358C39.998 156.558 39.7975 156.715 39.5374 156.829C39.2827 156.943 38.9819 157 38.6351 157Z" fill="#7F4AE9"/>
<path d="M44.5442 153.203V155.683C44.5442 155.851 44.5822 155.973 44.658 156.049C44.7393 156.119 44.8748 156.154 45.0645 156.154H45.6335V156.927H44.9019C44.4846 156.927 44.1649 156.829 43.9427 156.634C43.7205 156.439 43.6094 156.122 43.6094 155.683V153.203H43.0811V152.447H43.6094V151.333H44.5442V152.447H45.6335V153.203H44.5442Z" fill="#7F4AE9"/>
<path d="M46.959 151.853C46.791 151.853 46.6501 151.796 46.5363 151.682C46.4225 151.569 46.3656 151.428 46.3656 151.26C46.3656 151.092 46.4225 150.951 46.5363 150.837C46.6501 150.723 46.791 150.666 46.959 150.666C47.1216 150.666 47.2598 150.723 47.3736 150.837C47.4874 150.951 47.5443 151.092 47.5443 151.26C47.5443 151.428 47.4874 151.569 47.3736 151.682C47.2598 151.796 47.1216 151.853 46.959 151.853ZM47.4142 152.447V156.927H46.4876V152.447H47.4142Z" fill="#7F4AE9"/>
<path d="M54.0527 152.374C54.4049 152.374 54.7193 152.447 54.9956 152.593C55.2774 152.739 55.4969 152.956 55.6541 153.244C55.8166 153.531 55.8979 153.878 55.8979 154.284V156.927H54.9794V154.423C54.9794 154.021 54.8791 153.715 54.6786 153.504C54.4781 153.287 54.2044 153.178 53.8576 153.178C53.5108 153.178 53.2344 153.287 53.0285 153.504C52.828 153.715 52.7277 154.021 52.7277 154.423V156.927H51.8092V154.423C51.8092 154.021 51.7089 153.715 51.5084 153.504C51.3079 153.287 51.0342 153.178 50.6874 153.178C50.3406 153.178 50.0642 153.287 49.8583 153.504C49.6578 153.715 49.5575 154.021 49.5575 154.423V156.927H48.6309V152.447H49.5575V152.959C49.7093 152.775 49.9017 152.631 50.1347 152.528C50.3677 152.425 50.617 152.374 50.8825 152.374C51.2402 152.374 51.5599 152.449 51.8417 152.601C52.1235 152.753 52.3403 152.972 52.492 153.26C52.6275 152.989 52.8388 152.775 53.126 152.617C53.4132 152.455 53.7221 152.374 54.0527 152.374Z" fill="#7F4AE9"/>
<path d="M61.1821 154.577C61.1821 154.745 61.1712 154.897 61.1496 155.032H57.7274C57.7545 155.39 57.8872 155.677 58.1257 155.894C58.3641 156.111 58.6568 156.219 59.0036 156.219C59.5022 156.219 59.8544 156.011 60.0603 155.593H61.0602C60.9247 156.005 60.6781 156.344 60.3204 156.61C59.9682 156.87 59.5292 157 59.0036 157C58.5755 157 58.1907 156.905 57.8493 156.715C57.5133 156.52 57.2478 156.249 57.0527 155.902C56.863 155.55 56.7682 155.143 56.7682 154.683C56.7682 154.222 56.8603 153.818 57.0446 153.471C57.2342 153.119 57.4971 152.848 57.8331 152.658C58.1745 152.468 58.5646 152.374 59.0036 152.374C59.4263 152.374 59.8029 152.466 60.1335 152.65C60.464 152.834 60.7215 153.094 60.9057 153.431C61.09 153.761 61.1821 154.143 61.1821 154.577ZM60.2148 154.284C60.2093 153.943 60.0874 153.669 59.849 153.463C59.6105 153.257 59.3152 153.154 58.9629 153.154C58.6432 153.154 58.3695 153.257 58.1419 153.463C57.9143 153.664 57.7789 153.937 57.7355 154.284H60.2148Z" fill="#7F4AE9"/>
<path d="M65.2867 153.203V155.683C65.2867 155.851 65.3246 155.973 65.4005 156.049C65.4818 156.119 65.6173 156.154 65.8069 156.154H66.3759V156.927H65.6443C65.2271 156.927 64.9073 156.829 64.6852 156.634C64.463 156.439 64.3519 156.122 64.3519 155.683V153.203H63.8235V152.447H64.3519V151.333H65.2867V152.447H66.3759V153.203H65.2867Z" fill="#7F4AE9"/>
<path d="M69.1728 157C68.7501 157 68.368 156.905 68.0266 156.715C67.6852 156.52 67.417 156.249 67.2219 155.902C67.0268 155.55 66.9293 155.143 66.9293 154.683C66.9293 154.227 67.0295 153.824 67.23 153.471C67.4305 153.119 67.7042 152.848 68.051 152.658C68.3978 152.468 68.7853 152.374 69.2134 152.374C69.6415 152.374 70.029 152.468 70.3758 152.658C70.7226 152.848 70.9963 153.119 71.1968 153.471C71.3973 153.824 71.4976 154.227 71.4976 154.683C71.4976 155.138 71.3946 155.542 71.1887 155.894C70.9828 156.247 70.701 156.52 70.3433 156.715C69.9911 156.905 69.6009 157 69.1728 157ZM69.1728 156.195C69.4112 156.195 69.6334 156.138 69.8393 156.024C70.0507 155.91 70.2214 155.74 70.3514 155.512C70.4815 155.284 70.5465 155.008 70.5465 154.683C70.5465 154.357 70.4842 154.084 70.3596 153.861C70.2349 153.634 70.0696 153.463 69.8637 153.349C69.6578 153.235 69.4356 153.178 69.1972 153.178C68.9587 153.178 68.7365 153.235 68.5306 153.349C68.3301 153.463 68.1702 153.634 68.051 153.861C67.9318 154.084 67.8722 154.357 67.8722 154.683C67.8722 155.165 67.9941 155.539 68.238 155.805C68.4873 156.065 68.7989 156.195 69.1728 156.195Z" fill="#7F4AE9"/>
<path d="M75.4519 153.113C75.609 152.897 75.8231 152.72 76.094 152.585C76.3704 152.444 76.6766 152.374 77.0126 152.374C77.4082 152.374 77.7658 152.468 78.0856 152.658C78.4053 152.848 78.6573 153.119 78.8415 153.471C79.0258 153.818 79.1179 154.217 79.1179 154.666C79.1179 155.116 79.0258 155.52 78.8415 155.878C78.6573 156.23 78.4026 156.507 78.0774 156.707C77.7577 156.902 77.4028 157 77.0126 157C76.6658 157 76.3569 156.932 76.0859 156.797C75.8204 156.661 75.609 156.488 75.4519 156.276V156.927H74.5252V150.91H75.4519V153.113ZM78.175 154.666C78.175 154.357 78.11 154.092 77.9799 153.87C77.8553 153.642 77.6873 153.471 77.4759 153.357C77.27 153.238 77.0478 153.178 76.8094 153.178C76.5763 153.178 76.3542 153.238 76.1428 153.357C75.9369 153.477 75.7689 153.65 75.6388 153.878C75.5142 154.105 75.4519 154.374 75.4519 154.683C75.4519 154.992 75.5142 155.263 75.6388 155.496C75.7689 155.723 75.9369 155.897 76.1428 156.016C76.3542 156.135 76.5763 156.195 76.8094 156.195C77.0478 156.195 77.27 156.135 77.4759 156.016C77.6873 155.891 77.8553 155.713 77.9799 155.48C78.11 155.246 78.175 154.975 78.175 154.666Z" fill="#7F4AE9"/>
<path d="M80.5058 151.853C80.3378 151.853 80.1969 151.796 80.0831 151.682C79.9693 151.569 79.9124 151.428 79.9124 151.26C79.9124 151.092 79.9693 150.951 80.0831 150.837C80.1969 150.723 80.3378 150.666 80.5058 150.666C80.6683 150.666 80.8065 150.723 80.9203 150.837C81.0341 150.951 81.091 151.092 81.091 151.26C81.091 151.428 81.0341 151.569 80.9203 151.682C80.8065 151.796 80.6683 151.853 80.5058 151.853ZM80.961 152.447V156.927H80.0343V152.447H80.961Z" fill="#7F4AE9"/>
<path d="M81.8687 154.666C81.8687 154.217 81.9608 153.818 82.1451 153.471C82.3348 153.124 82.5895 152.856 82.9092 152.666C83.2343 152.471 83.5947 152.374 83.9903 152.374C84.2829 152.374 84.5702 152.439 84.8519 152.569C85.1392 152.693 85.3668 152.861 85.5348 153.073V150.91H86.4696V156.927H85.5348V156.252C85.383 156.469 85.1717 156.648 84.9007 156.789C84.6352 156.93 84.329 157 83.9822 157C83.592 157 83.2343 156.902 82.9092 156.707C82.5895 156.507 82.3348 156.23 82.1451 155.878C81.9608 155.52 81.8687 155.116 81.8687 154.666ZM85.5348 154.683C85.5348 154.374 85.4697 154.105 85.3397 153.878C85.215 153.65 85.0497 153.477 84.8438 153.357C84.6379 153.238 84.4157 153.178 84.1773 153.178C83.9388 153.178 83.7166 153.238 83.5107 153.357C83.3048 153.471 83.1368 153.642 83.0067 153.87C82.8821 154.092 82.8198 154.357 82.8198 154.666C82.8198 154.975 82.8821 155.246 83.0067 155.48C83.1368 155.713 83.3048 155.891 83.5107 156.016C83.7221 156.135 83.9442 156.195 84.1773 156.195C84.4157 156.195 84.6379 156.135 84.8438 156.016C85.0497 155.897 85.215 155.723 85.3397 155.496C85.4697 155.263 85.5348 154.992 85.5348 154.683Z" fill="#7F4AE9"/>
<path d="M92.058 152.374C92.4103 152.374 92.7246 152.447 93.001 152.593C93.2828 152.739 93.5022 152.956 93.6594 153.244C93.8165 153.531 93.8951 153.878 93.8951 154.284V156.927H92.9766V154.423C92.9766 154.021 92.8763 153.715 92.6758 153.504C92.4753 153.287 92.2016 153.178 91.8548 153.178C91.508 153.178 91.2316 153.287 91.0257 153.504C90.8252 153.715 90.7249 154.021 90.7249 154.423V156.927H89.7983V152.447H90.7249V152.959C90.8767 152.775 91.069 152.631 91.3021 152.528C91.5405 152.425 91.7925 152.374 92.058 152.374Z" fill="#7F4AE9"/>
<path d="M97.0199 157C96.5972 157 96.2152 156.905 95.8738 156.715C95.5324 156.52 95.2641 156.249 95.069 155.902C94.8739 155.55 94.7764 155.143 94.7764 154.683C94.7764 154.227 94.8766 153.824 95.0771 153.471C95.2777 153.119 95.5513 152.848 95.8981 152.658C96.245 152.468 96.6324 152.374 97.0605 152.374C97.4887 152.374 97.8761 152.468 98.223 152.658C98.5698 152.848 98.8434 153.119 99.0439 153.471C99.2445 153.824 99.3447 154.227 99.3447 154.683C99.3447 155.138 99.2417 155.542 99.0358 155.894C98.8299 156.247 98.5481 156.52 98.1904 156.715C97.8382 156.905 97.448 157 97.0199 157ZM97.0199 156.195C97.2583 156.195 97.4805 156.138 97.6865 156.024C97.8978 155.91 98.0685 155.74 98.1986 155.512C98.3286 155.284 98.3937 155.008 98.3937 154.683C98.3937 154.357 98.3313 154.084 98.2067 153.861C98.0821 153.634 97.9168 153.463 97.7108 153.349C97.5049 153.235 97.2827 153.178 97.0443 153.178C96.8058 153.178 96.5837 153.235 96.3777 153.349C96.1772 153.463 96.0174 153.634 95.8981 153.861C95.7789 154.084 95.7193 154.357 95.7193 154.683C95.7193 155.165 95.8412 155.539 96.0851 155.805C96.3344 156.065 96.646 156.195 97.0199 156.195Z" fill="#7F4AE9"/>
<path d="M106.276 152.447L104.886 156.927H103.911L103.008 153.618L102.106 156.927H101.131L99.7324 152.447H100.675L101.61 156.049L102.561 152.447H103.529L104.439 156.032L105.366 152.447H106.276Z" fill="#7F4AE9"/>
<path d="M109.454 156.984C109.286 156.984 109.145 156.927 109.031 156.813C108.918 156.699 108.861 156.558 108.861 156.39C108.861 156.222 108.918 156.081 109.031 155.967C109.145 155.854 109.286 155.797 109.454 155.797C109.617 155.797 109.755 155.854 109.869 155.967C109.982 156.081 110.039 156.222 110.039 156.39C110.039 156.558 109.982 156.699 109.869 156.813C109.755 156.927 109.617 156.984 109.454 156.984Z" fill="#7F4AE9"/>
<path d="M111.415 156.984C111.247 156.984 111.106 156.927 110.992 156.813C110.878 156.699 110.821 156.558 110.821 156.39C110.821 156.222 110.878 156.081 110.992 155.967C111.106 155.854 111.247 155.797 111.415 155.797C111.577 155.797 111.716 155.854 111.829 155.967C111.943 156.081 112 156.222 112 156.39C112 156.558 111.943 156.699 111.829 156.813C111.716 156.927 111.577 156.984 111.415 156.984Z" fill="#7F4AE9"/>
<path d="M64.2167 36.1759C60.39 36.5092 58.1915 36.8158 56.8417 37.8288C55.2554 39.0151 54.8797 41.1878 54.4623 45.5332C54.0309 41.0278 53.6413 38.8685 51.9019 37.7088C50.5521 36.8024 48.3675 36.5092 44.7078 36.1893C48.5205 35.856 50.733 35.5495 52.0689 34.5498C53.6691 33.3501 54.0448 31.1908 54.4623 26.832C54.8519 30.8442 55.1997 32.9902 56.4938 34.2299C57.7879 35.4695 60.0422 35.8161 64.2167 36.1759Z" fill="#E79B33"/>
<path d="M26.8247 63.8211C22.9981 64.1543 20.7995 64.4609 19.4497 65.4739C17.8634 66.6602 17.4877 68.8329 17.0703 73.1783C16.6389 68.673 16.2493 66.5136 14.5099 65.354C13.1601 64.4476 10.9755 64.1543 7.31582 63.8344C11.1285 63.5012 13.341 63.1946 14.6769 62.1949C16.2771 60.9953 16.6528 58.8359 17.0703 54.4772C17.4599 58.4893 17.8078 60.6354 19.1019 61.875C20.396 63.1146 22.6502 63.4612 26.8247 63.8211Z" fill="#E79B33"/>
</svg>
